<svg width="96" height="100" fill="none" xmlns="http://www.w3.org/2000/svg"><circle cx="48" cy="52" r="47.5" stroke="#001D30"/><path fill-rule="evenodd" clip-rule="evenodd" d="M47.459 28.187c-.367.182-.448.29-.961 1.27l-.56 1.072-.833.108c-.458.06-.982.146-1.165.192-.46.116-.858.47-.98.871-.166.546.014.9.934 1.837l.81.825-.148.88c-.186 1.104-.187 1.447-.002 1.831.18.375.581.591 1.095.592.298 0 .617-.117 1.373-.505l.984-.505.928.49c.724.383 1.015.49 1.323.49.475 0 .909-.238 1.165-.64.203-.319.2-.65-.014-1.984l-.116-.722.814-.783c.873-.839 1.082-1.213.978-1.756-.07-.366-.55-.801-1.016-.92-.185-.048-.73-.136-1.208-.196l-.87-.108-.407-.864c-.478-1.016-.84-1.459-1.297-1.583-.422-.116-.362-.123-.827.108zm1.04 2.377c.276.553.543.962.7 1.073.17.12.579.227 1.229.323.535.079.996.166 1.024.193.027.028-.292.381-.71.786-.903.875-.94.986-.73 2.225.08.479.146.913.146.966 0 .052-.415-.115-.921-.371-1.19-.602-1.355-.6-2.516.013-.562.297-.877.42-.878.345a14.3 14.3 0 01.15-1.006c.087-.514.123-.997.085-1.146-.038-.151-.388-.583-.837-1.036-.51-.513-.729-.79-.645-.817.069-.022.49-.088.934-.146 1.243-.162 1.448-.319 2.063-1.572.195-.399.378-.725.407-.725.03 0 .254.403.5.895zm-11.205 1.385c-.267.235-.498.59-.8 1.223l-.425.892-1.05.147c-1.503.21-2.023.556-2.023 1.342 0 .46.1.612 1.002 1.513l.802.802-.19 1.048c-.18.994-.183 1.068-.042 1.432.186.478.57.756 1.117.808.37.035.535-.017 1.412-.45l.992-.49.885.449c.487.247 1.02.48 1.187.516a1.25 1.25 0 001.463-.899c.072-.264.053-.571-.088-1.379l-.18-1.04.844-.845c.653-.655.857-.92.905-1.17.092-.48-.022-.829-.365-1.126-.349-.301-.644-.39-1.797-.546l-.812-.11-.535-1.023c-.611-1.17-.888-1.426-1.537-1.426-.325 0-.453.056-.765.332zm20.339-.237c-.451.094-.708.39-1.233 1.418l-.48.938-.837.11c-1.244.163-1.58.265-1.922.582-.252.234-.307.35-.307.646 0 .568.134.792.996 1.658l.81.813-.182 1.052c-.201 1.172-.163 1.586.182 1.947.258.271.752.403 1.159.31.173-.04.722-.274 1.22-.52l.906-.45.97.49c.867.438 1.017.486 1.397.45.521-.049.913-.31 1.128-.752.157-.325.156-.365-.03-1.439l-.193-1.104.801-.805c.849-.852.99-1.084.99-1.632 0-.727-.54-1.035-2.177-1.246l-.845-.109-.519-1.008c-.29-.563-.614-1.069-.734-1.146a1.58 1.58 0 00-1.1-.203zm-18.344 3.466c.136.098.59.22 1.123.301.493.076.952.155 1.021.176.082.025-.125.291-.596.767-.918.926-.96 1.06-.74 2.336.09.525.156.964.145.975-.011.01-.422-.184-.913-.434-1.178-.598-1.361-.597-2.512.008-.483.254-.889.45-.903.435-.014-.014.051-.464.145-1 .218-1.254.178-1.378-.754-2.32-.468-.475-.675-.742-.593-.766.069-.02.526-.098 1.014-.172.545-.082.98-.198 1.124-.3.128-.092.456-.592.727-1.112l.493-.944.495.944c.273.519.599 1.017.724 1.106zm19.859.001c.135.096.577.217 1.078.293 1.383.212 1.328.127.562.858-.37.353-.73.75-.8.881-.161.306-.16.812.008 1.747.073.41.122.757.108.77-.013.014-.426-.18-.917-.429-1.178-.598-1.361-.597-2.512.008-.482.254-.89.45-.904.435-.015-.014.05-.445.143-.956.096-.521.146-1.062.115-1.233-.042-.222-.262-.514-.819-1.083-.485-.496-.717-.792-.638-.815.068-.02.523-.097 1.012-.17.545-.083.98-.2 1.123-.302.13-.091.457-.591.728-1.11l.493-.945.495.944c.273.519.599 1.017.725 1.107zm6.227 4.486c-.21.127-.426.449-.848 1.27l-.565 1.1-.86.11a15.44 15.44 0 00-1.191.193c-.46.114-.858.469-.982.876-.159.524.18 1.13 1.078 1.93l.705.627-.166.956c-.21 1.207-.209 1.42.011 1.775.248.4.683.64 1.161.64.31 0 .602-.107 1.327-.488l.93-.49.965.492c1.11.567 1.463.65 1.933.457.69-.284.823-.882.543-2.426l-.15-.83.77-.769c.422-.423.814-.856.868-.962.144-.278.124-.794-.044-1.142-.226-.47-.605-.64-1.78-.805l-1.046-.147-.559-1.067c-.412-.786-.64-1.12-.864-1.269a1.157 1.157 0 00-1.236-.03zm-35.974.076c-.255.137-.42.37-.873 1.23l-.56 1.061-1.035.145c-.57.08-1.158.208-1.31.285-.53.27-.768.986-.531 1.6.051.134.436.588.855 1.01l.761.766-.164 1.01c-.236 1.445-.117 1.926.558 2.27.395.201.829.1 1.925-.45l.984-.494.93.483c.732.379 1.02.483 1.345.484.522.003.96-.271 1.197-.746.17-.344.17-.359-.014-1.46l-.186-1.111.857-.855c.817-.815.86-.876.9-1.3.035-.351.004-.51-.148-.751-.263-.42-.648-.576-1.839-.746l-1.018-.146-.53-1.018c-.301-.577-.634-1.092-.768-1.187-.35-.249-.953-.285-1.336-.08zm1.81 3.392c.182.127.558.229 1.183.318.504.072.973.149 1.043.17.08.025-.12.263-.565.666-.38.345-.75.74-.823.879-.168.32-.167.859.003 1.734.074.382.135.723.135.758 0 .035-.455-.157-1.01-.426-1.204-.582-1.255-.581-2.466.059-.454.24-.842.436-.863.436-.02 0 .039-.428.131-.952.235-1.328.209-1.414-.71-2.34-.51-.512-.728-.789-.644-.816.069-.022.49-.088.934-.146 1.258-.164 1.39-.267 2.028-1.59l.387-.803.485.933c.305.586.584 1.002.752 1.12zm35.17-1.232c.615 1.253.82 1.41 2.062 1.572.445.058.866.124.935.146.084.027-.135.304-.644.816-.906.912-.95 1.042-.746 2.188.217 1.228.267 1.183-.728.653-1.156-.616-1.325-.616-2.536-.003l-.935.472.06-.34c.361-2.07.364-2.056-.645-3.007-.533-.502-.736-.746-.645-.774.074-.023.546-.1 1.05-.173.602-.086 1.002-.192 1.168-.308.154-.11.424-.524.698-1.072.245-.492.47-.895.498-.895.03 0 .213.326.408.725zm-18.345-.232c-.522.189-1.056.67-1.293 1.165-.166.345-.216.657-.275 1.706-.041.735-.136 1.492-.222 1.77-.406 1.327-1.281 2.328-3.43 3.923a47.655 47.655 0 00-1.707 1.316l-.43.368-.046-.819c-.049-.898-.121-1.019-.667-1.117-.152-.028-1.665-.038-3.362-.024l-3.085.027-.172.209c-.163.198-.172.397-.172 3.784 0 3.457.006 3.581.18 3.752.25.247.724.233.973-.028.193-.202.195-.244.195-3.275v-3.07h4.762V66.58h-4.762v-6.696l-.208-.193c-.264-.245-.72-.252-.96-.016-.174.172-.18.296-.18 3.99 0 2.317.035 3.875.088 3.974.049.089.216.206.373.26.391.134 6.145.134 6.536 0 .37-.128.461-.311.461-.927v-.505l.51.059c.64.074 1.396.372 2.119.836.868.556 1.313.634 3.63.634 1.163 0 2.099-.038 2.242-.092.516-.193.645-.732.264-1.107l-.22-.217h-2.209c-2.416 0-2.427-.002-3.257-.557-.61-.409-1.318-.668-2.293-.84l-.786-.14v-11.19l.749-.698c.412-.384 1.413-1.195 2.224-1.801 2.45-1.833 3.366-2.874 3.89-4.425.252-.743.415-1.847.415-2.796 0-.746.172-1.036.706-1.194.433-.127.932.06 1.122.421.072.138.24.709.372 1.269.386 1.63.4 1.673.638 1.826.296.191.748.069.931-.253.159-.278.066-.957-.329-2.408-.285-1.05-.62-1.582-1.23-1.951-.366-.222-.547-.27-1.078-.288-.395-.013-.778.03-1.007.113zm2.702 6.63c-.121.119-.22.313-.22.43 0 .443-.286 1.8-.514 2.444-.203.57-.246.874-.293 2.042-.064 1.607-.173 1.933-.894 2.685-.569.592-1.246.924-2.095 1.03-.535.065-.688.122-.855.312-.228.261-.246.384-.1.698.167.363.528.454 1.323.335.986-.148 1.884-.605 2.629-1.336.975-.958 1.423-2.066 1.426-3.525l.001-.73h.908c.812 0 .902.016.851.148-.155.399-.238.998-.186 1.356.11.759.644 1.64 1.167 1.925.176.096.176.102-.034.525a2.436 2.436 0 00-.07 2.06l.23.562-.432.383c-.59.522-.856 1.127-.853 1.937.004.8.256 1.365.855 1.92l.449.415-.194.375c-.267.515-.327 1.275-.141 1.81.08.233.146.437.146.452 0 .016-.463.029-1.03.029-1.153 0-1.423.08-1.586.466-.092.22-.089.307.02.496.258.454.301.458 4.168.433 3.478-.022 3.608-.03 4.019-.216 1.327-.604 1.965-2.253 1.348-3.481l-.198-.395.348-.311c.476-.425.684-.754.864-1.363.178-.605.127-1.274-.138-1.785l-.17-.33.44-.409c.614-.568.853-1.117.851-1.957-.002-.826-.222-1.316-.853-1.898l-.445-.41.2-.373c.306-.568.287-1.627-.04-2.242a3.423 3.423 0 00-.655-.813c-.737-.639-.725-.637-5.416-.637-3.938 0-4.169-.009-4.109-.155.147-.358.403-1.786.404-2.25.001-.439-.03-.527-.236-.687-.314-.243-.62-.231-.89.034zm9.19 4.585c.565.304.787 1.228.415 1.728-.383.514-.579.55-3.042.55-1.96 0-2.286-.02-2.557-.155-.766-.38-.871-1.507-.19-2.035.305-.236.76-.277 2.882-.26 1.914.014 2.24.036 2.492.172zm-23.862 1.244c-.178.187-.195.298-.195 1.276 0 .59.026 1.139.058 1.221.088.226.563.395.83.295.404-.152.454-.313.457-1.474.003-1.04-.007-1.098-.218-1.306-.283-.279-.673-.284-.932-.012zm24.75 2.573c.584.348.798 1.216.425 1.718-.383.514-.578.55-3.041.55-1.96 0-2.286-.02-2.558-.156-.782-.388-.87-1.612-.15-2.058.361-.223.734-.254 2.888-.237 1.936.014 2.185.033 2.436.183zm-.867 3.828c.347.203.572.619.572 1.06 0 .44-.196.772-.596 1.013-.265.158-.466.172-2.56.172-2.486 0-2.717-.037-3.051-.5-.36-.497-.302-1.104.146-1.546l.35-.343h2.444c2.103 0 2.48.02 2.695.145zm-.899 3.807c.534.31.75 1.169.418 1.667-.339.51-.594.577-2.167.577-1.267 0-1.471-.02-1.724-.172-.473-.284-.604-.575-.577-1.276.007-.169.127-.37.359-.598l.349-.343h1.547c1.27 0 1.59.026 1.795.145z" fill="#001D30"/></svg>