<svg width="96" height="100" fill="none" xmlns="http://www.w3.org/2000/svg"><circle cx="48" cy="52" r="47.5" stroke="#001D30"/><path fill-rule="evenodd" clip-rule="evenodd" d="M28.612 28.16c-.182.089-.394.266-.471.395-.132.218-.141 1.341-.141 17.816 0 17.06.005 17.59.154 17.83.235.377.619.515 1.427.515h.696l.035.744c.041.853.18 1.19.58 1.404.238.127.578.144 3.26.163 3.222.022 3.285.015 3.52-.393.152-.266.011-.648-.29-.782-.137-.062-1.092-.091-2.988-.091H31.61v-1.045h11.875c11.345 0 11.888-.006 12.155-.146.532-.28.58-.48.58-2.423v-1.729l.533-.216.533-.216v5.775h-8.691c-6.285 0-8.748.025-8.895.09-.3.135-.441.517-.288.783.245.429-.141.413 9.48.392 8.914-.02 8.957-.02 9.188-.186.517-.372.518-.38.518-4.05v-3.333l.763.744c.712.694.76.762.73 1.022-.019.154-.009.379.021.5.037.147 1.077 1.224 3.065 3.176 3.23 3.172 3.302 3.228 3.885 3.04.19-.062.712-.516 1.61-1.401C69.968 65.259 70 65.219 70 64.888c0-.486-.126-.668-1.137-1.651-.774-.752-.94-.877-1.167-.877a.56.56 0 00-.457.218c-.343.39-.271.556.626 1.45l.82.815-.943.92-.942.92-2.707-2.65-2.706-2.65.941-.922.942-.922 1.054 1.022c.889.86 1.095 1.022 1.306 1.022a.648.648 0 00.648-.545c.05-.254.006-.31-1.128-1.433-.648-.643-1.287-1.224-1.419-1.291a1.064 1.064 0 00-.586-.085c-.347.038-.349.037-1.175-.774l-.827-.813.167-.241c.606-.873 1.263-2.534 1.48-3.736.154-.856.134-2.692-.038-3.557-.161-.806-.535-1.891-.888-2.577-.133-.259-.23-.48-.216-.494.014-.013.163-.08.332-.148.323-.13.636-.537.637-.824 0-.379-.34-.693-1.042-.961-1.181-.452-1.638-.898-2.08-2.031-.246-.63-.524-.977-.785-.977-.094 0-.112-.82-.112-4.945 0-5.354.016-5.153-.45-5.58-.2-.183-.296-.203-1.067-.228l-.848-.027-.028-.83c-.025-.755-.046-.85-.233-1.048-.437-.464.38-.438-13.88-.438-12.975 0-13.153.002-13.48.16zm26.376 3.969c0 2.658.01 2.855.154 3.029.213.258.71.258.923 0 .14-.168.154-.344.154-1.864v-1.678h1.066v10.346l-.532-.212-.532-.212-.001-2.1c-.001-1.931-.014-2.115-.155-2.286-.213-.258-.71-.258-.923 0-.14.17-.154.35-.154 2.11 0 1.796-.01 1.922-.143 1.883-.405-.12-1.31-.209-2.14-.21-.806 0-.96-.021-1.14-.16-.197-.153-.333-.161-2.572-.161-2.36 0-2.363 0-2.586.188-.307.258-.307.651 0 .91.199.167.305.187.977.188h.755l-.575.335c-.59.343-1.726 1.146-1.809 1.278-.027.044-2.663.074-6.474.074-3.535 0-6.49.023-6.567.052-.209.078-.365.503-.273.74.164.422-.064.407 6.202.41 3.215.002 5.845.016 5.845.032s-.172.279-.381.583c-.21.304-.545.887-.744 1.296l-.362.743H32.85l-.223.187a.597.597 0 00-.035.89c.17.166.225.168 5.101.19l4.93.023-.053.299c-.03.164-.076.524-.104.8l-.051.5-4.826.021c-4.771.022-4.828.024-4.997.19a.597.597 0 00.035.89l.223.188h9.566l.054.59c.03.326.088.705.129.844l.074.253-4.937.002c-5.29.003-5.131-.01-5.294.41-.092.238.064.662.273.74.077.03 2.422.053 5.213.053h5.074l.39.783.423.844c.017.033-.307.06-.72.06-.721 0-.761.01-.991.235-.261.255-.288.377-.149.676.147.316.407.375 1.65.375h1.16l.662.626c.364.344.79.724.949.843l.287.216h-6.904c-3.798.001-6.968.025-7.044.054-.365.137-.39.888-.035 1.074.095.05 3.114.079 8.225.079 7.107 0 8.118.015 8.434.125.873.305 1.702.447 2.868.493 1.075.042 2.276-.044 2.667-.19.096-.036.115.18.115 1.29v1.335H29.23V29.286h25.758v2.843zm-18.791 1.168c-.132.129-.24.312-.24.408 0 .095.108.278.24.407l.24.235h11.344l.24-.235c.132-.129.24-.312.24-.407 0-.096-.108-.28-.24-.408l-.24-.235H36.436l-.24.235zm-3.543 4.525c-.333.247-.295.92.06 1.052.077.03 1.385.053 2.907.053h2.768l.178-.186a.585.585 0 00-.011-.845c-.187-.172-.228-.175-2.978-.175-2.105 0-2.822.025-2.924.101zm7.151.05c-.137.109-.19.234-.19.452 0 .219.053.344.19.452.181.144.443.15 5.923.15 5.623 0 5.736-.002 5.897-.16.228-.224.216-.647-.026-.87l-.19-.175h-5.707c-5.454 0-5.716.007-5.897.15zm22.402 1.537c-.12.118-.164.267-.164.562v.402h-.41c-.3 0-.454.043-.572.159-.508.497-.117 1.126.7 1.126h.282v.396c0 .332.035.423.216.563.473.364 1.014.053 1.014-.582v-.354l.422-.05c.461-.053.685-.2.762-.502.109-.423-.237-.75-.794-.754l-.39-.002v-.387c0-.278-.047-.436-.167-.562-.217-.228-.673-.236-.899-.015zM32.646 40.78c-.28.216-.303.697-.044.926.167.148.389.153 6.242.153h6.069l.157-.19a.618.618 0 00-.045-.858l-.201-.197h-5.981c-5.927 0-5.983.001-6.197.166zm21.07 1.45c.87.104 1.883.378 2.64.715.543.24.543.24.388.41a2.58 2.58 0 01-.495.362l-.338.194-.729-.239a8.112 8.112 0 00-6.018.38 7.684 7.684 0 00-3.765 9.947c1.148 2.7 3.835 4.534 6.841 4.668 1.187.053 1.932-.049 3.016-.41a7.723 7.723 0 004.365-3.684c1.094-2.032 1.208-4.371.32-6.547-.236-.576-.227-.622.215-1.146.214-.253.25-.269.365-.157.176.17.67 1.379.874 2.14.219.814.297 2.485.16 3.409-.201 1.35-.829 2.85-1.642 3.923-.51.674-1.538 1.648-2.2 2.085-2.906 1.918-6.668 2.006-9.742.23-.85-.492-2.192-1.734-2.743-2.541-.515-.753-1.047-1.907-1.292-2.8-.194-.707-.216-.926-.216-2.191 0-1.266.022-1.485.216-2.192a9.026 9.026 0 012.18-3.853c1.946-2.03 4.789-3.041 7.6-2.704zm4.958 1.105c.246.471.97 1.203 1.457 1.472.24.133.435.255.435.272 0 .017-.154.108-.342.202-.487.243-1.194.923-1.486 1.429l-.25.432-.184-.356c-.274-.526-.852-1.115-1.407-1.433l-.49-.28.378-.212c.594-.334 1.092-.81 1.403-1.342a5.61 5.61 0 01.305-.492c.01-.002.092.137.181.308zm-4.676 1.301l.46.089-.03.3c-.04.426.25.738.906.97 1.177.417 1.718.92 2.131 1.988.332.854.58 1.088 1.125 1.054l.377-.023.106.4c.168.63.217 1.881.102 2.585-.42 2.565-2.286 4.571-4.884 5.253-.917.241-2.364.241-3.281 0-2.335-.613-4.063-2.278-4.736-4.563-.264-.898-.264-2.524 0-3.422.982-3.336 4.256-5.3 7.724-4.63zm-4.417 2.636c-.485.133-.619.696-.251 1.057.156.152.285.158 3.32.158 3.035 0 3.165-.006 3.32-.158.369-.36.235-.924-.25-1.057-.11-.03-1.49-.054-3.07-.054-1.579 0-2.96.024-3.069.054zm-.868 2.272c-.432.232-.51.752-.153 1.026.212.163.295.167 4.09.167 3.796 0 3.88-.004 4.09-.167.216-.165.28-.461.166-.753-.137-.35-.315-.366-4.272-.363-2.56.002-3.81.03-3.921.09zm-.015 2.237c-.404.162-.485.772-.138 1.039.212.163.295.166 4.09.166 3.796 0 3.88-.003 4.09-.166.265-.204.292-.608.06-.89l-.157-.189-3.883-.016c-2.14-.009-3.964.016-4.062.056zm1.759 2.295c-.407.217-.395.85.02 1.057.147.072.754.101 2.157.102 2.127.001 2.383-.044 2.485-.442.08-.315-.03-.588-.292-.72-.349-.177-4.036-.174-4.37.003zM32.84 56.257c-.463.167-.573.77-.194 1.062.211.163.295.167 4.023.167 3.181 0 3.846-.02 4.04-.118.477-.242.45-.813-.05-1.074-.13-.068-1.227-.092-3.938-.087-2.067.003-3.814.026-3.881.05zm28.588 3.316l-.452.442-.757-.741-.757-.742.448-.443.447-.444.761.743.762.742-.452.442z" fill="#001D30"/></svg>