<svg width="96" height="100" fill="none" xmlns="http://www.w3.org/2000/svg"><circle cx="48" cy="52" r="47.5" stroke="#001D30"/><path fill-rule="evenodd" clip-rule="evenodd" d="M43.744 60.259c-.163.102-.33.363-.657 1.03l-.438.892-.667.09c-.366.05-.782.12-.924.156-.357.093-.665.38-.761.711-.123.425.14.917.835 1.565l.547.51-.129.775c-.162.98-.161 1.152.01 1.44.192.325.529.52.9.52.24 0 .466-.087 1.029-.397l.721-.397.748.4c.86.459 1.134.527 1.498.37.535-.23.639-.716.422-1.968l-.117-.673.597-.624c.328-.344.631-.695.674-.782.11-.224.095-.644-.035-.926-.175-.38-.469-.52-1.38-.653l-.81-.119-.434-.866c-.32-.637-.496-.908-.67-1.029a.864.864 0 00-.959-.025zm.78 1.814c.477 1.017.636 1.144 1.6 1.275.344.047.67.1.724.119.065.022-.104.246-.499.662-.703.74-.737.845-.579 1.775.087.511.14.75.065.804-.07.05-.254-.065-.629-.274-.896-.5-1.028-.5-1.967-.003l-.724.383.046-.276c.164-.983.233-1.386.105-1.707-.09-.227-.28-.412-.605-.732-.413-.407-.571-.605-.5-.628.057-.019.423-.082.814-.14.467-.07.777-.156.905-.251.12-.088.33-.424.541-.87.19-.399.365-.725.387-.725.023 0 .165.264.317.588zm7.758-1.814c-.163.102-.33.363-.657 1.03l-.438.892-.667.09c-.366.05-.782.12-.924.156-.357.093-.665.38-.761.711-.124.425.139.917.835 1.565l.547.51-.129.775c-.162.98-.161 1.152.01 1.44.191.325.528.52.9.52.24 0 .466-.087 1.029-.397l.72-.397.749.4c.86.459 1.134.527 1.498.37.535-.23.639-.716.422-1.968l-.117-.673.597-.624c.328-.344.631-.695.674-.782.11-.224.095-.644-.035-.926-.175-.38-.47-.52-1.38-.653l-.811-.119-.434-.866c-.32-.637-.495-.908-.67-1.029a.864.864 0 00-.958-.025zm.78 1.814c.477 1.017.636 1.144 1.6 1.275.344.047.67.1.724.119.065.022-.105.246-.499.662-.703.74-.737.845-.58 1.775.087.511.14.75.066.804-.07.05-.254-.065-.629-.274-.897-.5-1.028-.5-1.967-.003l-.725.383.047-.276c.164-.983.232-1.386.105-1.707-.091-.227-.28-.412-.606-.732-.413-.407-.57-.605-.5-.628.058-.019.424-.082.814-.14.468-.07.778-.156.906-.251.12-.088.33-.424.541-.87.19-.399.364-.725.387-.725.023 0 .165.264.316.588z" fill="#001D30"/><path fill-rule="evenodd" clip-rule="evenodd" d="M46.354 28.229c-1.898.69-3.3 2.179-3.98 4.227-.2.6-.216.752-.246 2.29-.029 1.482-.047 1.669-.187 1.87-.551.798-.483 1.951.16 2.726.274.33.922.703 1.224.704.219.001.291.114.415.644.223.948.816 1.945 1.49 2.503l.307.255v.71c0 .662-.012.718-.175.79-.097.042-.684.279-1.306.526l-1.91.761c-.429.172-1.2.48-1.715.684-1.376.547-1.801.801-2.431 1.452-.561.58-.841 1.041-1.138 1.875-.144.403-.162.686-.194 3.055l-.035 2.61-.245.162c-.27.179-.435.581-.376.912.023.128.322.505.754.953l.716.741-.157 1.007c-.148.95-.15 1.022-.026 1.288.134.29.381.44.728.44.11 0 .584-.206 1.055-.458l.858-.457.87.459c.977.516 1.244.559 1.594.256.306-.266.331-.467.177-1.413l-.13-.797h1.782c1.661 0 1.78.01 1.74.14-.076.262-.201 1.183-.201 1.492-.001.233.054.364.227.543.351.362.647.322 1.653-.227l.847-.462.847.462c1.007.549 1.302.59 1.654.227.173-.18.227-.31.227-.548 0-.278-.09-.94-.198-1.447l-.038-.18h3.564l-.098.542c-.095.525-.136.948-.12 1.251.005.08.111.252.236.382.34.35.601.315 1.616-.221l.87-.459.874.466c.768.41.914.461 1.196.422.384-.053.674-.371.67-.737 0-.132-.068-.633-.148-1.112l-.147-.87.724-.736c.424-.432.737-.819.758-.937a.894.894 0 00-.367-.904l-.27-.18-.001-.883c-.003-1.05-.081-1.274-.457-1.311-.478-.048-.557.118-.557 1.173v.922l-.292-.05a3.951 3.951 0 00-.38-.05c-.048-.001-.268-.384-.489-.85-.494-1.046-.667-1.24-1.103-1.24-.264 0-.372.05-.589.273l-.265.273v-.875c0-.769-.019-.896-.156-1.037-.192-.197-.399-.204-.614-.02-.157.134-.166.222-.184 1.828l-.02 1.687-.849.125c-.787.116-.865.144-1.072.383-.357.411-.312.73.178 1.264l.401.436h-2.237l.319-.34c.42-.45.518-.662.458-.989-.075-.415-.413-.655-1.013-.721-.278-.031-.555-.097-.616-.148-.1-.083-.348-1.417-.732-3.949l-.122-.806.187-.298c.126-.201.225-.282.304-.248.643.278.943.272 1.267-.029.085-.078.525-.913.98-1.854.79-1.637.833-1.71 1.02-1.661.106.027.599.213 1.094.412.495.2 1.26.507 1.7.683 1.032.415 1.664.854 2.09 1.45.436.61.663 1.243.714 1.998.046.671.126.841.431.92.161.042.252.006.415-.161.202-.209.206-.234.154-.857-.108-1.276-.494-2.142-1.337-3.007-.783-.802-.758-.79-5.995-2.857a51.274 51.274 0 01-1.266-.514l-.254-.114.002-1.489.397-.401c.698-.707 1.067-1.373 1.314-2.37.124-.497.142-.523.397-.567.564-.097 1.265-.614 1.51-1.114a2.405 2.405 0 00-.067-2.212c-.17-.301-.186-.434-.224-1.89-.054-2.023-.257-2.78-1.1-4.086-.91-1.411-2.78-2.664-4.017-2.692-.385-.008-.435.01-.546.212-.108.197-.109.243-.004.431.091.165.278.265.862.462.985.332 1.545.684 2.27 1.427 1.052 1.08 1.545 2.433 1.545 4.243 0 .487-.026.886-.059.885-.243-.004-.397-.12-.437-.326-.04-.208-1.04-1.427-1.633-1.991-.305-.29-.788-.314-1.223-.06-1.9 1.111-3.433 1.575-5.197 1.575-.666 0-.968.034-1.164.13-.146.071-.265.156-.265.189 0 .157-.4.485-.593.485h-.21l.05-1.065c.095-2.034.678-3.356 1.97-4.47.63-.543 1.602-1.034 2.31-1.165.672-.126.581-1.014-.103-1.01-.147 0-.548.104-.892.229zm5.327 6.671l.638.717v2.09c0 1.216-.036 2.27-.086 2.517-.198.978-.886 2.013-1.688 2.54-1.606 1.054-3.882.681-5.098-.834-.752-.938-.845-1.375-.845-3.937v-2.02l1.032-.043c1.468-.062 2.739-.384 4.122-1.042.326-.156.729-.378.895-.494.165-.116.321-.21.347-.21.025 0 .332.322.683.716zm-8.093 2.938c0 1.303-.013 1.328-.53 1.002-.44-.276-.607-.95-.365-1.474.104-.226.665-.693.833-.693.034 0 .062.525.062 1.165zm10.303-.912c.284.206.489.778.418 1.166-.064.353-.56.91-.812.91-.16 0-.165-.031-.165-1.17v-1.17l.176.057c.096.03.269.124.383.207zm-4.231 9.125c-.437.563-.881 1.12-.986 1.238l-.191.214-.713-.896c-1.297-1.63-1.22-1.5-1.22-2.063 0-.481.007-.497.176-.443 1.06.34 2.416.37 3.254.074l.429-.152.046 1.003-.795 1.025zm-2.84 1c.495.629.9 1.165.9 1.192 0 .027-.404.344-.898.704l-.897.653-.74-1.522c-.407-.838-.74-1.555-.74-1.594 0-.068 1.19-.558 1.381-.568.052-.003.5.508.994 1.136zm5.068-.88c.365.144.663.286.664.316 0 .03-.332.743-.738 1.585l-.74 1.531-.254-.18c-.77-.542-1.541-1.138-1.541-1.192 0-.056.638-.885 1.462-1.898.188-.232.374-.422.413-.422.04 0 .37.117.734.26zm-7.56 2.448c.556 1.13.93 1.797 1.063 1.896.258.19.688.194.997.006.232-.142.242-.141.352.012.314.435.315.392-.073 2.82-.241 1.511-.408 2.349-.48 2.408-.06.05-.34.117-.62.148-.697.077-1.004.346-1.004.876 0 .33.037.404.386.77l.387.404h-2.249l.374-.39c.499-.522.565-.907.225-1.3-.217-.25-.287-.276-1.08-.396l-.85-.128-.078-3.442-.214-.124c-.193-.111-.236-.111-.429 0-.212.122-.214.132-.236 1.054l-.022.93-.263-.27c-.213-.22-.322-.271-.585-.271-.433 0-.6.185-1.098 1.216-.22.458-.407.838-.414.845-.007.007-.18.038-.383.07l-.37.056v-2.282c0-2.46.042-2.814.429-3.6.263-.536.953-1.232 1.501-1.514.386-.2 1.441-.636 3.254-1.347.257-.1.502-.185.545-.187.043-.002.464.78.936 1.74zm4.72.766c.25.188.458.37.46.407.003.036-.087.19-.2.341-.201.273-.211.276-.809.276-.598 0-.608-.003-.81-.276-.248-.337-.253-.415-.028-.537.097-.052.298-.198.447-.324.149-.126.32-.229.378-.229.059 0 .312.154.563.342zm.205 3.634c.137.838.239 1.535.227 1.547-.011.012-.086-.126-.164-.306-.188-.428-.455-.638-.81-.638-.37 0-.588.165-.828.628-.168.322-.19.342-.157.135.022-.133.13-.801.238-1.486.11-.685.215-1.292.235-1.35.025-.073.177-.097.523-.08l.487.024.249 1.526zm-8.33 3.544c.147.104.431.19.732.224.27.03.607.075.749.101l.258.047-.628.663c-.614.648-.628.672-.626 1.055.002.215.051.644.11.953.058.31.096.573.084.587-.013.013-.36-.159-.773-.382-.413-.223-.808-.406-.879-.406-.07 0-.473.182-.895.404-.877.462-.836.498-.637-.568.164-.884.117-1.017-.615-1.728-.299-.291-.525-.548-.503-.571.023-.023.333-.078.69-.123 1.031-.128 1.086-.167 1.55-1.118l.4-.824.371.758c.243.497.454.817.612.928zm7.966-.86c.448.898.571.996 1.364 1.087.257.03.585.074.73.1l.26.046-.621.614c-.408.402-.638.695-.67.853-.028.131.015.583.095 1.002.08.42.136.775.125.789-.01.014-.36-.158-.774-.382-.416-.224-.82-.407-.899-.407-.079 0-.479.181-.889.402-.41.22-.757.401-.773.401-.015 0 .033-.359.106-.798.073-.439.115-.897.093-1.017-.026-.136-.278-.457-.663-.842l-.622-.623.38-.05c1.486-.196 1.554-.24 2.026-1.29.167-.37.31-.676.32-.678.008-.002.194.355.412.793zm8.577.013c.443.908.536.982 1.362 1.076 1.014.115.988.054.323.76-.322.34-.61.716-.638.834-.029.118.004.531.073.918.069.387.125.75.125.805 0 .06-.304-.06-.763-.301-.42-.222-.823-.403-.896-.403-.072 0-.47.183-.882.406-.413.223-.761.395-.773.382-.012-.014.025-.278.084-.587.058-.31.107-.738.109-.953.003-.383-.012-.407-.629-1.059l-.631-.666.378-.053c.889-.123 1.247-.21 1.43-.35.108-.082.353-.48.546-.883.193-.404.36-.735.37-.735.01 0 .196.364.412.809z" fill="#001D30"/></svg>